<svg width="50" height="80" viewBox="0 0 50 80" fill="none" xmlns="http://www.w3.org/2000/svg">
<path fill-rule="evenodd" clip-rule="evenodd" d="M19.2244 79.4183H30.8033C32.3269 79.4183 33.6565 78.144 34.1551 76.3712C34.5152 75.1247 33.8227 73.7673 32.7978 73.7673H26.0111H17.2022C16.1773 73.7673 15.4848 75.1247 15.8449 76.3712C16.3712 78.144 17.6731 79.4183 19.2244 79.4183ZM29.9446 10.3047C31.1357 10.6371 32.2438 11.108 33.2964 11.7175C32.7978 13.2687 33.1579 15.0693 34.4044 16.3158C35.651 17.5623 37.4515 17.9501 39.0305 17.4238C39.6122 18.4765 40.0831 19.6122 40.4155 20.7756C38.9474 21.5235 37.9224 23.0748 37.9224 24.8199C37.9224 26.5928 38.9474 28.1163 40.4155 28.8643C40.0831 30.0554 39.6122 31.1911 39.0305 32.2438C37.4515 31.7175 35.651 32.0776 34.4044 33.3518C33.1579 34.5983 32.7978 36.3712 33.2964 37.9501C32.2438 38.5596 31.1357 39.0305 29.9446 39.3352C29.1967 37.867 27.6731 36.8698 25.9003 36.8698C24.1274 36.8698 22.6039 37.867 21.856 39.3352C20.6648 39.0305 19.5291 38.5596 18.5042 37.9501C19.0028 36.3712 18.6427 34.5983 17.3961 33.3518C16.1496 32.0776 14.349 31.7175 12.7701 32.2438C12.1884 31.1911 11.7175 30.0554 11.385 28.8643C12.8532 28.1163 13.8504 26.5928 13.8504 24.8199C13.8504 23.0748 12.8532 21.5235 11.385 20.7756C11.7175 19.6122 12.1884 18.4765 12.7701 17.4238C14.349 17.9501 16.1496 17.5623 17.3961 16.3158C18.6427 15.0693 19.0028 13.2687 18.5042 11.7175C19.5291 11.108 20.6648 10.6371 21.856 10.3047C22.6039 11.8006 24.1274 12.7978 25.9003 12.7978C27.6731 12.7978 29.1967 11.8006 29.9446 10.3047ZM25.9003 17.9224C29.6953 17.9224 32.7978 21.0249 32.7978 24.8199C32.7978 28.6427 29.6953 31.7175 25.9003 31.7175C22.0776 31.7175 19.0028 28.6427 19.0028 24.8199C19.0028 21.0249 22.0776 17.9224 25.9003 17.9224ZM16.2881 54.5983L33.7396 54.8476V51.4404C33.7396 49.6953 34.1274 48.0609 34.8476 46.5928C35.5956 45.1247 36.6759 43.8504 38.0886 42.8255C40.8864 40.7756 43.1579 38.0886 44.7368 34.9584C46.2604 31.9945 47.0914 28.5873 47.0914 25.0138C47.0914 18.892 44.626 13.3795 40.6371 9.39058C36.6205 5.37396 31.108 2.90859 25.0138 2.90859C18.892 2.90859 13.3795 5.37396 9.39058 9.39058C5.37396 13.3795 2.90859 18.892 2.90859 25.0138C2.90859 28.5873 3.76731 31.9945 5.26316 34.9584C6.84211 38.0886 9.14127 40.7756 11.9114 42.8255C13.3241 43.8504 14.4044 45.1247 15.1524 46.5928C15.9003 48.0609 16.2881 49.6953 16.2881 51.4404V54.5983ZM35.1801 57.7562L14.9307 57.4792H14.8199C14.0166 57.4792 13.3795 56.8421 13.3795 56.0388V51.4404C13.3795 50.1385 13.1025 48.9474 12.5762 47.8947C12.0222 46.8421 11.2465 45.928 10.1939 45.1524C7.06371 42.8255 4.45983 39.8061 2.68698 36.2881C0.969529 32.8809 0 29.0582 0 25.0138C0 18.0886 2.79778 11.856 7.31302 7.31302C11.856 2.79778 18.0886 0 25.0138 0C31.9114 0 38.1717 2.79778 42.687 7.31302C47.2022 11.856 50 18.0886 50 25.0138C50 29.0582 49.0582 32.8809 47.3407 36.2881C45.5402 39.8061 42.964 42.8255 39.8061 45.1524C38.7812 45.928 37.9778 46.8421 37.4515 47.8947C36.9252 48.9474 36.6482 50.1385 36.6482 51.4404V56.3158V56.3435C36.6205 57.1468 35.9834 57.7839 35.1801 57.7562ZM37.036 71.108C37.8393 70.2216 38.3379 68.9197 38.3379 67.4515V65.7895C38.3379 63.1856 36.7313 61.0803 34.7645 61.0803H15.2355C13.2687 61.0803 11.662 63.1856 11.662 65.7895V67.4515C11.662 68.9197 12.1884 70.2216 12.9917 71.108C13.5457 71.7174 14.2105 72.0222 14.9584 72.0222H35.0416C35.7895 72.0222 36.4543 71.7174 37.036 71.108Z" fill="#CDABDB"/>
</svg>
