<svg width="80" height="35" viewBox="0 0 80 35" fill="none" xmlns="http://www.w3.org/2000/svg">
<path d="M79.5625 1.43356V32.9718C79.5625 33.6886 78.8457 34.4054 77.9497 34.4054H23.8329C22.9369 34.4054 22.2202 33.6886 22.2202 32.9718V1.43356C22.2202 0.716779 22.9369 0 23.8329 0H77.9497C78.8457 0 79.5625 0.716779 79.5625 1.43356ZM72.9323 30.8215L55.5504 17.9195L51.6081 20.4282C51.0705 20.7866 50.5329 20.7866 49.9954 20.4282L46.0531 17.9195L28.8504 30.8215H72.9323ZM58.9551 15.9483L75.9786 28.492V5.01746L58.9551 15.9483ZM25.8041 28.492L42.8276 15.9483L25.8041 5.01746V28.492ZM30.1047 3.5839L50.7121 16.8443L71.4987 3.5839H30.1047Z" fill="#CDABDB"/>
<path fill-rule="evenodd" clip-rule="evenodd" d="M5.73427 9.67652H16.8444C18.9947 9.67652 18.9947 12.902 16.8444 12.902H5.73427C3.58394 12.902 3.58394 9.67652 5.73427 9.67652Z" fill="#CDABDB"/>
<path fill-rule="evenodd" clip-rule="evenodd" d="M1.61275 15.59H16.8443C18.9947 15.59 18.9947 18.8155 16.8443 18.8155H1.61275C-0.537584 18.8155 -0.537584 15.59 1.61275 15.59Z" fill="#CDABDB"/>
<path fill-rule="evenodd" clip-rule="evenodd" d="M5.73427 21.5034H16.8444C18.9947 21.5034 18.9947 24.7289 16.8444 24.7289H5.73427C3.58394 24.7289 3.58394 21.5034 5.73427 21.5034Z" fill="#CDABDB"/>
</svg>
