<?xml version="1.0" encoding="UTF-8" standalone="no"?><svg xmlns="http://www.w3.org/2000/svg" xmlns:xlink="http://www.w3.org/1999/xlink" fill="#000000" height="108.2" preserveAspectRatio="xMidYMid meet" version="1" viewBox="-0.2 -0.1 109.0 108.2" width="109" zoomAndPan="magnify"><g id="change1_1"><path d="M53.2,107.8c-0.2-0.2-0.4-0.4-0.6-0.7c-0.5-0.6-0.9-1.3-1.3-1.9l-1.6-2.5c-1.1-1.7-2.1-3.3-3.2-5 c-0.8-1.2-1.6-2.3-2.4-3.5l0.1,0.1c-1-1.4-1.9-2.8-2.8-4.2c-0.5-0.7-0.9-1.4-1.3-2.1l-0.6-1h-0.2l-1.8,0.4c-1.2,0.3-2.5,0.6-3.7,1 c-1,0.3-2,0.7-3,1.1s-2,0.7-3,1s-2.2,0.8-3.3,1.3c-1.1,0.5-2.3,0.9-3.4,1.2c-0.6,0.2-1.3,0.3-2,0.4h-0.4c-0.6,0-1.2-0.3-1.5-0.8 c-0.2-0.4-0.3-0.8-0.3-1.2c0-0.6,0.1-1.1,0.1-1.7s0.2-1.2,0.3-1.9s0.2-1,0.3-1.5c0.4-1.6,0.6-3.3,0.9-5s0.8-3.4,1.2-5.2 c0.2-1,0.4-2,0.5-3.1c0-0.3,0-0.5,0-0.8c-0.9-0.6-1.7-1.1-2.5-1.7l-1.6-1.1c-0.5-0.3-0.9-0.7-1.4-1.1c-1-0.7-1.9-1.4-2.9-2.2 s-1.9-1.4-2.8-2.1s-1.8-1.3-2.7-2c-1.4-1.1-2.8-2.2-4.1-3.3l-1-0.8c-0.4-0.3-0.8-0.8-1.1-1.2c-0.2-0.4-0.3-0.9-0.1-1.3 c0.1-0.4,0.4-0.7,0.7-0.9l1-0.8l0,0C2.2,53.4,2.6,53,3,52.6L3.5,52c0.2-0.2,0.4-0.4,0.6-0.5C4.6,51.3,5,51,5.4,50.8s1-0.6,1.5-0.9 c1.1-0.7,2.1-1.3,3.2-2l1.6-0.9c0.5-0.3,1-0.7,1.6-1l1.6-1L14.6,45l0.1-0.1l0,0c0.6-0.4,1.1-0.8,1.7-1.2c0.2-0.2,0.5-0.5,0.7-0.7 l0.2-0.3l0,0c-0.1-0.3-0.2-0.6-0.3-0.9c-0.2-0.5-0.3-1.1-0.4-1.6c-0.2-1.2-0.4-2.4-0.5-3.5s-0.4-2.4-0.6-3.6s-0.3-2.3-0.5-3.5 c0-0.2-0.1-0.5-0.1-0.7c-0.5-2.4-1.1-4.9-1.7-7.3c-0.2-0.6-0.3-1.1-0.5-1.7c-0.1-0.3-0.1-0.5-0.2-0.8c-0.1-0.5-0.2-1-0.1-1.6 c0.1-0.6,0.6-1,1.1-1.2c0.3-0.1,0.7-0.1,1-0.1c0.6,0,1.2,0,1.8,0.1c1.1,0.1,2.1,0.4,3.2,0.5s2.2,0.3,3.4,0.5s2.3,0.3,3.5,0.5 s2.5,0.5,3.7,0.8c0.5,0.1,0.9,0.2,1.4,0.4c0.3,0.1,0.6,0.2,0.9,0.3c0.4-1.3,0.8-2.6,1.4-3.9c0.3-0.8,0.6-1.5,1-2.3s0.6-1.5,0.9-2.3 s0.6-1.7,0.8-2.5s0.6-1.7,0.9-2.5s0.5-1.7,0.8-2.5s0.5-1.4,0.7-2.1l0,0c0-0.3,0.2-0.6,0.4-0.8c0.4-0.4,1-0.5,1.5-0.3 c0.3,0.1,0.5,0.4,0.7,0.7c1.2,0.8,2.3,1.7,3.4,2.5c2,1.4,3.9,2.7,5.8,4.2c3.9,3,7.7,6.1,11.8,8.9c0.6,0.4,1.2,0.9,1.9,1.3 c0.1,0,0.2,0.1,0.3,0.1l0.2,0.2l0.3-0.1c0.6-0.2,1.1-0.4,1.6-0.5c1.2-0.4,2.3-0.7,3.5-1s2.4-0.6,3.6-1s2.3-0.7,3.5-1.1 c1.3-0.4,2.7-0.8,4-1.2c1.3-0.4,2.7-0.7,4-1.1s2.3-0.9,3.5-1.3c0.6-0.2,1.2-0.4,1.8-0.4c0.6-0.1,1.2,0,1.7,0.4 c0.3,0.3,0.5,0.7,0.4,1.1c0,0.3-0.1,0.6-0.1,0.9l-0.3,1.6c-0.2,1.2-0.4,2.3-0.7,3.5s-0.6,2.3-0.8,3.4c-0.1,0.6-0.3,1.2-0.4,1.8 s-0.3,1.2-0.5,1.8c-0.3,1.2-0.6,2.4-0.8,3.5s-0.6,2.4-0.9,3.6c-0.2,1-0.5,1.9-0.7,2.9c-0.1,0.4-0.2,0.8-0.3,1.2c2,1.1,4,2.2,5.9,3.3 c1,0.6,2,1.2,3.1,1.9s2.1,1.3,3.2,1.9l1.2,0.7l0,0l0,0l0.2,0.1l0.2,0.1l0,0l0,0c1,0.5,2,1,3,1.6l0,0l0.3,0.2l-0.2-0.1 c1.1,0.5,2.2,1.2,3.2,2c0.2,0.2,0.4,0.4,0.6,0.7c0.2,0.3,0.4,0.6,0.6,0.9c0.2,0.5,0.1,1-0.2,1.4c-0.2,0.2-0.3,0.3-0.5,0.5 c-0.3,0.2-0.6,0.4-0.9,0.6c-0.5,0.3-1,0.6-1.6,0.9c-1.1,0.5-2.1,1-3.2,1.5L99,55.7c-1.1,0.5-2.2,1.2-3.3,1.8s-2.1,1.1-3.2,1.7 s-2.2,1.2-3.2,1.8l-1,0.6l0.1,0.2c0.2,0.5,0.4,1.1,0.7,1.6c0.4,1.1,0.9,2.3,1.3,3.5s0.9,2.3,1.2,3.6s0.8,2.4,1.2,3.7 c0.8,2.3,1.8,4.6,2.6,7c0.2,0.6,0.4,1.3,0.6,1.9c0.1,0.3,0.1,0.6,0.2,0.9c0,0.2,0,0.4,0,0.5c0,0.3-0.1,0.6-0.2,0.9 c-0.2,0.4-0.5,0.7-0.9,0.8c-0.2,0.1-0.5,0.1-0.7,0.1c-0.5,0.1-1,0.1-1.6,0.2c-2.5,0.3-5,0.4-7.5,0.5c-1.3,0.1-2.5,0.2-3.8,0.3 l-3.7,0.3c-1.8,0.2-3.6,0.3-5.3,0.4c-0.9,0-1.8,0.1-2.7,0.2s-1.7,0.2-2.6,0.3h-0.1c-0.1,0.2-0.3,0.4-0.4,0.7L66,90.5 c-0.5,0.8-1,1.7-1.5,2.5s-1.1,1.7-1.6,2.5c-0.6,0.8-1.1,1.7-1.5,2.6l0,0c-0.6,1.1-1.2,2.2-1.8,3.3s-1.2,2-1.9,3s-1.4,2-2.2,2.9 c-0.2,0.4-0.6,0.6-1,0.8c-0.1,0-0.2,0-0.4,0C53.9,108.1,53.5,108,53.2,107.8z" fill="#6d89c6"/></g></svg>