<?xml version="1.0" encoding="UTF-8"?><svg xmlns="http://www.w3.org/2000/svg" xmlns:xlink="http://www.w3.org/1999/xlink" height="582.9" preserveAspectRatio="xMidYMid meet" version="1.0" viewBox="-0.8 0.0 647.0 582.9" width="647.0" zoomAndPan="magnify"><g id="change1_1"><path d="M646.123,323.518c0-39.074-16.124-75.507-43.952-106.23l3.028-4.802c12.843-19.164,22.285-44.118,25.257-66.75 c3.579-27.254-2.477-47.644-17.054-57.412c-14.577-9.769-35.738-7.619-59.585,6.053c-19.803,11.354-39.293,29.573-52.136,48.737 l-3.889,5.804c-5.666-2.158-11.455-4.177-17.346-6.066l-2.883-5.411c-10.848-20.36-28.556-40.368-47.368-53.523 c-22.654-15.841-43.898-19.893-59.822-11.408c-15.282,8.143-23.708,26.797-23.909,52.717 c-114.751,4.475-211.286,56.71-249.747,128.789c-6.922-12.024-20.376-20.335-34.405-20.129c-3.901,0.057-7.733,0.791-11.371,2.084 c-6.703-6.981-16.269-11.859-26.119-10.835c-10.18,1.058-19.6,7.215-23.896,16.643c-1.763,3.87-1.106,8.48,2.827,10.781 c3.385,1.98,9.008,1.064,10.781-2.827c4.265-9.36,14.495-11.431,22.501-5.233c-6.171,5.765-10.585,13.415-11.947,21.778 c-1.517,9.321,0.064,20.562,8.934,25.819c7.782,4.612,17.704,2.188,24.116-3.648c10.773-9.805,8.629-25.79,2.285-38.674 c0.242-0.027,0.48-0.07,0.724-0.088c11.727-0.866,22.186,8.084,24.502,19.284c0.392,1.896,1.266,3.272,2.405,4.196 c-6.001,16.082-9.207,32.955-9.207,50.354c0,42.697,19.246,82.245,51.987,114.63c-0.901,4.665-2.059,10.853-3.189,17.428 c-2.357,13.711-5.714,36.596-2.902,53.228c3.386,20.029,12.089,33.117,24.506,36.854c12.417,3.737,26.898-2.374,40.776-17.206 c9.285-9.924,17.455-22.953,22.851-36.18c12.352,5.381,25.329,10.124,38.852,14.145c4.299,11.934,10.598,23.614,17.964,32.987 c12.551,15.971,26.453,23.305,39.145,20.649c12.692-2.655,22.489-14.946,27.585-34.61c0.347-1.341,0.66-2.711,0.956-4.094 c8.274,0.508,16.644,0.783,25.107,0.783c6.524,0,12.992-0.168,19.406-0.472c4.014,13.421,10.653,26.869,18.671,37.473 c12.251,16.202,26.014,23.794,38.753,21.376c12.74-2.418,22.763-14.525,28.225-34.089c3.383-12.118,4.69-26.156,3.819-39.458 c6.202-1.807,12.291-3.765,18.261-5.865c6.791,12.474,16.268,24.441,26.51,33.241c15.407,13.238,30.466,17.74,42.403,12.676 s19.168-19.019,20.359-39.297c0.937-15.959-2.058-34.234-8.04-49.461C617.567,422.85,646.123,375.523,646.123,323.518z M49.306,273.559c-0.844,2.792-4.412,6.378-6.961,5.126c-3.086-1.516-2.224-8.145-1.475-11.06c1.001-3.894,3.08-7.589,5.875-10.61 C49.434,262.52,50.805,268.6,49.306,273.559z" fill="#ffd7cd"/></g><g id="change2_1"><path d="M629.496,333.917c0.897,32.009-32.878,58.925-75.44,60.119c-42.562,1.193-77.793-23.788-78.69-55.798 s32.878-58.925,75.44-60.119C593.367,276.926,628.598,301.907,629.496,333.917z M511.937,159.267 c28.467,8.158,52.903,25.641,74.422,49.873c21.071-31.443,30.325-81.276,9.774-95.048 C575.582,100.32,533.008,127.824,511.937,159.267z M384,196.027c24.63-22.359,51.449-37.691,81.295-43.317 c-17.799-33.404-57.887-64.789-80.336-52.827C362.511,111.845,366.201,162.623,384,196.027z M269.692,539.404 c12.551,15.971,26.453,23.305,39.145,20.649c12.692-2.655,22.489-14.946,27.585-34.61c0.347-1.341,0.66-2.711,0.956-4.094 c-30.149-1.852-58.949-6.994-85.649-14.932C256.028,518.351,262.327,530.031,269.692,539.404z M516.13,534.338 c15.407,13.238,30.466,17.74,42.403,12.676s19.168-19.019,20.359-39.297c0.937-15.959-2.058-34.234-8.04-49.461 c-23.065,17.481-50.555,32.051-81.231,42.841C496.412,513.571,505.889,525.538,516.13,534.338z" fill="#f69495"/></g><g id="change3_1"><path d="M333.952,80.225c0,44.307-34.091,80.225-76.144,80.225s-76.144-35.918-76.144-80.225S215.755,0,257.808,0 S333.952,35.918,333.952,80.225z" fill="#f5b95b"/></g><g id="change4_1"><path d="M245.416,21.92c9.783,5.246-4.828,18.052-15.978,38.969c-8.703,16.326-14.555,35.85-23.887,31.381 c-9.856-4.719-9.008-25.863,1.18-43.123C216.919,31.886,236.968,17.389,245.416,21.92z M265.553,12.668 c-5.45,0.088-10.645,4.164-10.366,8.256c0.357,5.239,3.525,8.784,9.975,8.822c4.175,0.024,10.895-3.436,10.504-8.388 C275.039,16.372,271.863,12.566,265.553,12.668z M123.694,280.251c-11.23,27.696-10.838,62.659,1.267,72.565 s15.06-12.469,24.255-38.428c11.781-33.26,51.517-76.976,26.761-83.566C161.71,227.024,134.924,252.555,123.694,280.251z M198.01,211.775c-7.446,3.865-11.715,12.764-8.432,17.92c4.204,6.601,11.079,9.054,19.992,4.666 c5.769-2.84,12.576-11.985,8.528-18.187C213.703,210.09,206.631,207.301,198.01,211.775z M503.164,474.267 c26.876-11.39,51.354-35.682,50.511-50.727c-0.843-15.045-18.588-1.682-42.915,9.899c-31.169,14.837-87.865,17.835-76.471,39.212 C440.856,484.971,476.288,485.656,503.164,474.267z" fill="#fff"/></g><g id="change5_1"><path d="M549.988,337.627c0.401,14.288-4.835,26.026-11.695,26.218c-6.859,0.192-12.745-11.234-13.145-25.522 c-0.401-14.288,4.835-26.026,11.695-26.218C543.702,311.912,549.587,323.339,549.988,337.627z M583.314,313.764 c-6.467,0.181-11.403,11.248-11.026,24.718s5.926,24.243,12.393,24.062s11.403-11.248,11.026-24.718 S589.781,313.583,583.314,313.764z M458.342,221.341c-8.879,2.885-12.444,16.408-7.962,30.204 c4.482,13.797,15.314,22.643,24.193,19.758c8.879-2.885,12.444-16.408,7.962-30.204 C478.053,227.302,467.222,218.456,458.342,221.341z M551.665,218.501c-8.185-0.661-15.653,9.114-16.679,21.832 c-1.027,12.718,4.776,23.564,12.961,24.224c8.185,0.661,15.653-9.114,16.679-21.832C565.654,230.007,559.85,219.162,551.665,218.501 z M344.961,162.688l-0.002-0.009c-0.835-4.28-4.241-7.52-8.274-7.803c-39.811-2.799-77.992,5.42-114.858,22.526 c-3.726,1.729-5.75,6.067-4.901,10.419l0,0c1.113,5.709,6.649,9.194,11.689,7.325c35.277-13.08,71.267-20.59,108.131-21.277 C342.176,173.767,346.085,168.454,344.961,162.688z M276.03,135.301c22.129-7.44,31.456-23.326,35.384-35.343 c6.045-18.496,3.136-40.799-7.24-55.498c-0.924-1.31-2.736-1.622-4.046-0.697c-1.31,0.925-1.622,2.736-0.697,4.046 c9.37,13.275,11.968,33.507,6.464,50.346c-3.514,10.753-11.869,24.971-31.715,31.644c-28.282,9.508-47.589-6.818-56.581-17.395 c-1.038-1.222-2.871-1.37-4.092-0.332c-1.222,1.038-1.37,2.871-0.332,4.092c6.399,7.528,21.831,22.276,44.472,22.274 C263.33,138.437,269.469,137.507,276.03,135.301z" fill="#59524b"/></g></svg>