<?xml version="1.0" encoding="UTF-8" standalone="no"?><svg xmlns="http://www.w3.org/2000/svg" xmlns:xlink="http://www.w3.org/1999/xlink" fill="#000000" height="89.9" preserveAspectRatio="xMidYMid meet" version="1" viewBox="0.0 0.0 92.6 89.9" width="92.6" zoomAndPan="magnify"><g id="change1_1"><path d="M88.4,32c0-0.2,0-0.4-0.1-0.6v-0.1L88.4,32z M5.3,89.7c0-0.1,0-0.2,0-0.4C5.3,89.4,5.3,89.5,5.3,89.7 c0-0.3,0-0.4,0-0.6s0-0.4,0-0.6v0.3v-0.3c0-0.1,0-0.1,0-0.2v-0.1c0,0,0-0.1,0-0.1l0,0l0,0V88c0-0.1,0-0.2,0-0.2v0.1l0,0 c0-0.1,0-0.2,0-0.3c-0.4-5.4-1-10.8-1.5-16.1C3.4,67.8,3,64.2,2.6,60.6C2.3,55.7,2,50.8,1.7,46C1.3,40.7,1.2,35.4,1,30.1 S0.8,19.5,0.6,14.3c-0.1-2.7-0.3-5.3-0.5-8c0-0.5-0.1-1-0.1-1.5l4.1-0.4c4.2-0.1,8.3-0.1,12.4-0.2c2.6-0.1,5.2-0.3,7.7-0.5 s5-0.4,7.5-0.6c3.3-0.2,6.7-0.3,10-0.5c2.6-0.1,5.2-0.2,7.8-0.3s5.5-0.3,8.2-0.5c3.1-0.2,6.2-0.3,9.3-0.4C72.5,1.1,77.8,0.7,83,0.2 L86.2,0c0,1.2,0.1,2.4,0.2,3.6c0.3,5.3,0.8,10.6,1.2,15.8S88.5,30,89,35.2s1,10.8,1.4,16.2l0.6,7.9c0.2,2.5,0.4,5,0.6,7.4v-0.1 c0,0,0,0.1,0,0.2l0,0l0,0l0,0l0.2,2.6v-0.1c0,0,0,0.1,0,0.1l0,0l0,0c0.2,2.7,0.3,5.4,0.5,8.1c0.1,2.2,0.2,4.4,0.3,6.7l-8.2,0.5 l-8.1,0.5c-2.8,0.2-5.7,0.3-8.5,0.4s-5.7,0.3-8.5,0.4l-8.9,0.4c-5.8,0.3-11.6,0.7-17.3,1.1c-2.9,0.2-5.8,0.5-8.7,0.7L15.9,89l0,0 c-3.5,0.2-7.1,0.5-10.6,0.9C5.3,89.8,5.3,89.8,5.3,89.7z" fill="#88a3e2"/></g></svg>