<?xml version="1.0" encoding="UTF-8" standalone="no"?><svg xmlns="http://www.w3.org/2000/svg" xmlns:xlink="http://www.w3.org/1999/xlink" fill="#000000" height="354.3" preserveAspectRatio="xMidYMid meet" version="1" viewBox="69.3 66.3 364.3 354.3" width="364.3" zoomAndPan="magnify"><g><g id="change1_1"><path d="M 401.3125 363.117188 C 391.039062 294.980469 386.363281 226.039062 387.417969 157.136719 C 387.714844 137.558594 388.488281 117.988281 389.691406 98.445312 C 389.789062 96.832031 388.199219 94.890625 386.46875 95.070312 C 314.371094 102.675781 241.855469 106.148438 169.359375 105.363281 C 148.929688 105.140625 128.507812 104.574219 108.097656 103.691406 C 105.046875 103.558594 104.125 106.910156 105.40625 108.890625 C 106.691406 180.976562 107.976562 253.066406 109.261719 325.15625 C 109.628906 345.691406 109.996094 366.230469 110.359375 386.765625 C 110.390625 388.40625 111.75 390.289062 113.585938 390.140625 L 335.371094 372.25 C 356.257812 370.5625 377.144531 368.878906 398.027344 367.195312 C 400.28125 367.011719 401.652344 365.378906 401.3125 363.117188" fill="#fff3f3"/></g><g id="change2_1"><path d="M 423.429688 144.292969 C 410.972656 132.238281 398.511719 120.179688 386.054688 108.125 C 374.097656 96.554688 362.507812 84.355469 350.023438 73.351562 C 345.214844 69.109375 339.796875 66.335938 333.230469 66.773438 C 325.980469 67.253906 319.410156 70.902344 313.308594 74.558594 C 312.085938 75.292969 311.644531 76.433594 311.722656 77.539062 C 310.148438 78.585938 309.34375 80.8125 311.097656 82.507812 C 343.140625 113.464844 375.183594 144.417969 407.226562 175.375 C 408.523438 176.628906 410.5625 176.675781 411.894531 175.421875 C 415.210938 172.296875 418.527344 169.167969 421.847656 166.042969 C 424.277344 163.753906 427.1875 161.578125 429.167969 158.886719 C 433.609375 152.835938 427.539062 148.269531 423.429688 144.292969" fill="#fc8dca"/></g><g id="change2_2"><path d="M 203.75 401.25 C 177.570312 379.113281 151.394531 356.976562 125.214844 334.835938 C 118.859375 329.464844 112.507812 324.089844 106.152344 318.714844 C 102.847656 315.921875 99.542969 313.128906 96.242188 310.335938 C 93.632812 308.128906 91.003906 305.253906 87.914062 303.675781 C 83.253906 301.296875 79.339844 304.105469 77.570312 308.472656 C 74.476562 316.109375 72.265625 324.238281 69.648438 332.054688 C 69.3125 333.0625 69.457031 333.933594 69.882812 334.605469 C 69.503906 335.875 69.828125 337.308594 71.339844 338.15625 C 108.238281 358.867188 140.855469 386.375 167.542969 419.214844 C 168.722656 420.664062 170.957031 420.324219 172.210938 419.261719 C 180.460938 412.257812 190.53125 407.917969 201.316406 406.859375 C 203.816406 406.617188 206.210938 403.332031 203.75 401.25" fill="#fc8dca"/></g></g></svg>