<?xml version="1.0" encoding="utf-8"?>
<!-- Generator: Adobe Illustrator 22.0.1, SVG Export Plug-In . SVG Version: 6.00 Build 0)  -->
<svg version="1.1" id="Capa_1" xmlns="http://www.w3.org/2000/svg" xmlns:xlink="http://www.w3.org/1999/xlink" x="0px" y="0px"
	 width="130px" height="130px" viewBox="0 0 130 130" style="enable-background:new 0 0 130 130;" xml:space="preserve">
<style type="text/css">
	.st0{fill:#F59B9A;}
</style>
<g>
	<path class="st0" d="M119,85.8c-0.1-0.1-0.1-0.2-0.3-0.3c-2.6-2.6-5.7-5.4-8.8-7.4c-0.5-0.3-1.1-0.3-1.6,0c-0.4,0.2-0.7,0.4-1,0.6
		c-1.3-1.4-2.6-3-4.6-2.6c-0.5,0.1-0.9,0.4-1.4,0.7c-3-4.4-4.3-9-5.9-14.1c-1.4-4.6-4.1-8.5-7.4-12c-2.4-2.5-5.6-6.8-9.3-7.3
		c-2.5-0.3-4.7,1-6,3c-3.6-2.2-8.2-1.2-9.9,2.7c-3.3-1.4-6.9-0.3-8.8,2.8c-6.5-6.3-12-14.1-19.3-19.4c-5.1-3.8-13.1-0.4-10,6.5
		c2.1,4.6,7,8.1,10.5,11.7c2.5,2.5,5,5,7.4,7.6c1.9,2,3.8,4,5.7,6c-3.1,8.6,0.1,17,8.9,20.8c4.5,1.9,9.2,2.6,13.9,3.5
		c4.3,0.8,7.6,3.6,10.7,6.7c-0.3,0.4-0.5,0.8-0.6,1.2c-0.5,2,1.6,4,3.1,5.4c-0.2,0.2-0.3,0.4-0.5,0.5c-0.5,0.7-0.6,1.6,0,2.2
		c3,3,5.7,6.2,8.7,9.2c0.5,0.5,1.3,0.5,1.9,0.2c3.2-1.5,5.7-4.8,8.1-7.2c2.9-3.1,5.7-6,8.8-8.9C113.7,95.7,121.8,89.9,119,85.8
		 M84.1,92.9c-4.3-4.1-8.2-6.7-14.2-7.8C59.8,83.5,47.3,78.8,51,66.7c1.7,1.7,3.5,3.4,5.2,5.1c1.4,1.4,3.7-0.8,2.2-2.2
		C51.6,62.8,45,55.9,38.2,49c-2.9-3-7.6-6.2-9.6-9.9c-1.3-2.3-1.6-4.7,1.6-4.9c2-0.1,2.5,0.4,4,1.6c1.2,1,2.2,2.2,3.4,3.3
		c5.5,5.4,10.4,11.3,16.1,16.5c0.8,0.8,2.3,0.5,2.6-0.7c0.7-3.1,2.9-4,6.5-2.5c1.1,0.9,2.5,0.3,2.7-1.1c0.8-3.3,3-3.8,6.8-1.4
		c0.8,0.8,2.3,0.4,2.6-0.7c1.8-6.9,9.5,2.1,11.3,4c2.6,2.9,4.8,6.1,6.1,9.8c2,5.7,3.1,10.8,6.7,15.8c-0.2,0.1-0.3,0.3-0.5,0.4
		C96.2,81,94,83,91.9,85.1c-1.9,1.8-3.7,3.8-5.5,5.7C85.8,91.4,85,92.1,84.1,92.9 M84.8,97.4c0-0.7,1.5-1.8,2.2-2.6
		c2.3-2.5,4.7-5.1,7.1-7.5c2.6-2.6,5.4-5,8.3-7.2c1.6-1.2,1.4-0.7,2.5,0.6c-2.4,2.3-4.5,5.3-6.7,7.4c-3.9,3.9-8,7.4-11.7,11.4
		C85.9,98.7,84.8,97.5,84.8,97.4 M94,110.7c-2.3-2.4-4.5-4.8-6.8-7.2c5.2-6,11.2-10.9,16.6-16.7c1.1-1.2,2.2-2.4,3.3-3.6
		c0.7-0.7,2.1-1.8,2-1.8c1.4,0.1,6.3,5.2,7.3,6.3C117,88.2,99.2,106.7,94,110.7"/>
	<path class="st0" d="M92.2,100.8c-0.1,0.1-0.1,0.1-0.2,0.2c-0.1,0.1-0.1,0.2-0.1,0.2c-1,1.7-0.9,3.8,0.9,4.9
		c1.7,1.1,3.9,0.5,4.9-1.2c1-1.6,0.7-3.9-0.7-5.1C95.5,98.5,93.3,99.4,92.2,100.8 M95.6,103.8c-0.4,0.5-1,0.7-1.6,0.4
		c-0.8-0.5-0.4-1.4,0-2c0.4-0.6,1.2-0.9,1.6-0.2C96,102.5,96,103.3,95.6,103.8"/>
	<path class="st0" d="M45.6,35.7C47,22.4,29.4,19,21.3,26.6c-9,8.5-5,26.8,9.3,25.3c1.5-0.2,1.5-2.5,0-2.4
		C18.3,50.8,15.4,35.3,23,28.3c6.7-6.2,21.5-3.7,20.3,7.5C43.1,37.2,45.4,37.2,45.6,35.7"/>
	<path class="st0" d="M34.5,53.9c-6,2.4-13.5,0.1-17.8-4.5c-6.5-6.9-4.1-19,1.8-25.5c5.8-6.3,14.9-7.5,22.4-3.5
		c6.8,3.7,11.4,13.7,7.3,20.7c-0.8,1.3,1.3,2.5,2,1.2c4.5-7.7,0.6-18-6.4-22.9c-7.9-5.6-19-5-26,1.7c-7.1,6.7-10.1,19-4.5,27.7
		c4.3,6.7,14.3,10.3,21.8,7.3C36.5,55.6,35.9,53.3,34.5,53.9"/>
	<path class="st0" d="M108.3,86.1c-0.8-1.3-2.8-0.1-2,1.2c0.7,1.1,1.3,2.2,2,3.3c0.8,1.3,2.8,0.1,2-1.2L108.3,86.1z"/>
	<path class="st0" d="M111.7,85.6c-0.3-0.6-1.1-0.7-1.6-0.4c-0.6,0.4-0.7,1-0.4,1.6c0.5,1.1,1,2.2,1.5,3.3c0.3,0.6,1.1,0.7,1.6,0.4
		c0.6-0.4,0.7-1,0.4-1.6C112.7,87.8,112.2,86.7,111.7,85.6"/>
</g>
</svg>
