<?xml version="1.0" encoding="utf-8"?>
<!-- Generator: Adobe Illustrator 22.0.1, SVG Export Plug-In . SVG Version: 6.00 Build 0)  -->
<svg version="1.1" id="Capa_1" xmlns="http://www.w3.org/2000/svg" xmlns:xlink="http://www.w3.org/1999/xlink" x="0px" y="0px"
	 width="130px" height="130px" viewBox="0 0 130 130" style="enable-background:new 0 0 130 130;" xml:space="preserve">
<style type="text/css">
	.st0{fill:#F59B9A;}
	.st1{fill:#F1F2F1;}
	.st2{fill:none;stroke:#FFFFFF;stroke-miterlimit:10;}
</style>
<g>
	<path class="st0" d="M41.2,106.7c1.8-7.8-5.1-7.2-9.6-10.4c0.5,5.3,0.8,9.6,1.2,13.8c-1,0.3-1.9,0.5-2.9,0.8
		C32.5,91.2,10,81.8,12.4,63.3c-4-5.6-13.5-5.6-11.9-15c5.4-0.2,8.2,5.1,13,3.7C31.3,21.5,58.4,17,90.3,25.3
		c5.2-4,10.6-8.4,18.5-6.5c6.1,3.9,2.1,12.9-1,17.7c4.1,4.8,8,10,10.4,15.8c3.9,1.3,11.8-0.5,11.5,3.8c0.3,5.8-1,13.1-2,19.2
		c-3.8,0.5-6.7,1-9.9,1.4c-4.4,9.4-11.7,16.6-20.8,21.8c-0.9,4.2-1.7,8.2-2.5,11.9c-4,2-7.8,0.9-11,1.1c-3.7-0.9-3.5-3.8-4.1-6.4
		c-11,0-22.5,1.7-33.9-2.5c-0.8,6.6-2.5,11.5-11.5,6.4c2.9-0.5,4.5-0.7,6-1C41,108.3,41.4,107.8,41.2,106.7 M87.4,28.3
		c-18-5.6-35-5-51.1,4.1c-12.3,7-20.8,17.2-20.6,31.9c0.2,14.4,8.9,24.1,20.9,31c25.1,14.2,64.6,9.1,79.5-21.6
		c2.8-1.1,8.7,0.1,9.2-2.3c0.4-4.5,0.9-9.5,1.5-15c-4.1-0.2-7.3-0.4-10.9-0.5c-2-5.8-4.9-10.9-9.2-15.3c-2-1.1-3.8,2.4-5.9,0.2
		c3.6-5.5,7.6-10.9,6.8-18.6c-10.8-1.6-15,6.4-21.3,15.7C86.8,32.8,87.1,30.9,87.4,28.3 M91.1,108.4c1.3-2.6,1.9-4.5-0.1-6.8
		c-3.1,1.4-8.2-0.3-8.5,6.4C85.3,108.1,88,108.3,91.1,108.4"/>
	<path class="st1" d="M41.2,106.7c0.2,1-0.1,1.5-1.2,1.3C40.3,107.6,40.8,107.2,41.2,106.7"/>
	<path class="st1" d="M91.1,108.4c-4.3,1.3-6.3,0.3-8.6-0.4c0.3-6.7,5.4-5,8.5-6.4C93,103.9,92.4,105.8,91.1,108.4"/>
	<path class="st0" d="M77.4,32.9c-19.6-2.2-24.6-0.2-38.9,4.3C46.3,30.5,66,28.2,77.4,32.9"/>
	<path class="st0" d="M54.8,79.4c-0.7,0-1.4-0.2-2-0.6c-1.2-0.8-1.9-2.2-1.7-3.6l1-9.2l-7-6c-1.1-0.9-1.6-2.4-1.2-3.8
		c0.4-1.4,1.5-2.5,2.9-2.8l9.1-1.9l3.6-8.6c0.6-1.3,1.8-2.2,3.3-2.3c1.5-0.1,2.8,0.6,3.5,1.9l4.6,8l9.3,0.7c1.5,0.1,2.7,1,3.2,2.4
		c0.5,1.4,0.3,2.9-0.7,3.9l-6.2,6.9l2.2,9c0.3,1.4-0.1,2.9-1.3,3.8c-1.1,0.9-2.6,1.1-4,0.5L64.8,74l-7.9,4.8
		C56.2,79.2,55.5,79.4,54.8,79.4 M47.9,57.2l6.8,5.8c1,0.8,1.4,2,1.3,3.3l-0.9,8.9l7.7-4.7c1.1-0.7,2.4-0.7,3.5-0.2l8.2,3.7
		l-2.1-8.7c-0.3-1.2,0-2.5,0.9-3.4l6-6.7l-9-0.7c-1.2-0.1-2.4-0.8-3-1.9l-4.5-7.8L59.4,53c-0.5,1.2-1.5,2-2.7,2.3L47.9,57.2z
		 M74.9,74.1L74.9,74.1z"/>
	<path class="st2" d="M54.8,79.4c-0.7,0-1.4-0.2-2-0.6c-1.2-0.8-1.9-2.2-1.7-3.6l1-9.2l-7-6c-1.1-0.9-1.6-2.4-1.2-3.8
		c0.4-1.4,1.5-2.5,2.9-2.8l9.1-1.9l3.6-8.6c0.6-1.3,1.8-2.2,3.3-2.3c1.5-0.1,2.8,0.6,3.5,1.9l4.6,8l9.3,0.7c1.5,0.1,2.7,1,3.2,2.4
		c0.5,1.4,0.3,2.9-0.7,3.9l-6.2,6.9l2.2,9c0.3,1.4-0.1,2.9-1.3,3.8c-1.1,0.9-2.6,1.1-4,0.5L64.8,74l-7.9,4.8
		C56.2,79.2,55.5,79.4,54.8,79.4z M47.9,57.2l6.8,5.8c1,0.8,1.4,2,1.3,3.3l-0.9,8.9l7.7-4.7c1.1-0.7,2.4-0.7,3.5-0.2l8.2,3.7
		l-2.1-8.7c-0.3-1.2,0-2.5,0.9-3.4l6-6.7l-9-0.7c-1.2-0.1-2.4-0.8-3-1.9l-4.5-7.8L59.4,53c-0.5,1.2-1.5,2-2.7,2.3L47.9,57.2z
		 M74.9,74.1L74.9,74.1z"/>
	<path class="st0" d="M101.8,62.7c-3.9,0-7-3.1-7-7c0-3.9,3.1-7,7-7c3.9,0,7,3.1,7,7C108.8,59.5,105.7,62.7,101.8,62.7 M101.8,51.7
		c-2.2,0-4,1.8-4,4c0,2.2,1.8,4,4,4c2.2,0,4-1.8,4-4C105.8,53.5,104,51.7,101.8,51.7"/>
</g>
</svg>
