<svg width="89" height="66" viewBox="0 0 89 66" fill="none" xmlns="http://www.w3.org/2000/svg">
<path d="M88.3598 32.9C87.2598 30.5 85.0598 29.6 84.3598 29.4C81.8598 28.6 79.8598 29.5 79.1598 29.9L70.9598 33.4C72.0598 30.7 72.6598 27.7 72.6598 24.6C72.6598 11 61.5598 0 48.0598 0C34.4598 0 23.4598 11.1 23.4598 24.6C23.4598 27.2 23.8598 29.8 24.6598 32.1C23.7598 32.1 22.7598 32.2 21.6598 32.3C18.6598 32.8 15.8598 34 13.2598 35.9C10.0598 37.5 8.05981 38.4 6.35981 39.2C4.65981 40 3.05981 40.7 0.859808 41.8C0.459808 42 0.159808 42.4 0.0598075 42.8C-0.0401925 43.2 -0.0401922 43.7 0.259808 44.1C1.75981 46.5 3.55981 49.6 5.45981 52.9C7.85981 57.1 10.4598 61.5 12.5598 64.9C12.7598 65.3 13.1598 65.5 13.6598 65.6C13.7598 65.6 13.8598 65.6 13.9598 65.6C14.2598 65.6 14.6598 65.5 14.8598 65.3L21.8598 60.6H50.8598C51.1598 60.6 51.3598 60.5 51.6598 60.4L83.4598 43.5C84.2598 43.2 88.4598 41 88.9598 36.6C88.9598 36.1 89.1598 34.6 88.3598 32.9ZM48.0598 3.3C59.7598 3.3 69.3598 12.9 69.3598 24.6C69.3598 28.6 68.2598 32.3 66.3598 35.5L62.5598 37.1C65.4598 33.7 67.2598 29.4 67.2598 24.6C67.2598 14 58.6598 5.4 48.0598 5.4C37.4598 5.4 28.8598 14 28.8598 24.6C28.8598 27.7 29.5598 30.5 30.8598 33.1C30.6598 33.1 30.5598 33 30.3598 33C29.6598 32.8 29.0598 32.6 28.2598 32.5C27.2598 30.1 26.7598 27.4 26.7598 24.6C26.7598 12.9 36.2598 3.3 48.0598 3.3ZM54.7598 34.5C54.6598 34.5 54.4598 34.5 54.3598 34.4C54.0598 34.4 53.7598 34.3 53.4598 34.3H52.6598C54.5598 33.2 55.8598 31.3 55.8598 29.3C55.8598 26.3 53.1598 23.8 49.5598 23.2V16.8C51.4598 17.2 52.8598 18.5 52.8598 19.9C52.8598 20.7 53.5598 21.4 54.3598 21.4C55.1598 21.4 55.8598 20.7 55.8598 19.9C55.8598 16.9 53.1598 14.4 49.5598 13.8V12.2C49.5598 11.4 48.8598 10.7 48.0598 10.7C47.2598 10.7 46.5598 11.4 46.5598 12.2V13.8C42.9598 14.4 40.2598 16.9 40.2598 19.9C40.2598 22.9 42.9598 25.4 46.5598 26V32.4C44.6598 32 43.2598 30.7 43.2598 29.3C43.2598 28.5 42.5598 27.8 41.7598 27.8C40.9598 27.8 40.2598 28.5 40.2598 29.3C40.2598 31.4 41.5598 33.2 43.4598 34.3H38.2598C38.0598 34.3 37.7598 34.2 37.4598 34.2C36.7598 34.1 35.7598 34 34.8598 33.9C32.9598 31.3 31.8598 28 31.8598 24.6C31.8598 15.7 39.1598 8.4 48.0598 8.4C56.9598 8.4 64.2598 15.7 64.2598 24.6C64.2598 29.4 62.1598 33.7 58.8598 36.6C58.5598 36.3 58.1598 35.9 57.6598 35.6C56.8598 35.1 56.0598 34.7 55.1598 34.5C55.0598 34.5 54.8598 34.5 54.7598 34.5ZM46.5598 22.9C44.6598 22.5 43.2598 21.2 43.2598 19.8C43.2598 18.4 44.6598 17.2 46.5598 16.7V22.9ZM49.4598 32.4V26.3C51.3598 26.7 52.7598 28 52.7598 29.4C52.7598 30.8 51.3598 32 49.4598 32.4ZM85.6598 36.2C85.3598 39 82.0598 40.5 82.0598 40.5C82.0598 40.5 81.9598 40.5 81.9598 40.6L50.4598 57.6H21.2598C20.9598 57.6 20.5598 57.7 20.3598 57.9L14.4598 61.9C12.5598 58.8 10.4598 55.1 8.35981 51.5C6.85981 48.9 5.35981 46.3 4.05981 44.2C5.35981 43.5 6.45981 43 7.75981 42.5C9.55981 41.7 11.5598 40.8 14.9598 39.1C15.0598 39.1 15.1598 39 15.2598 38.9C17.4598 37.3 19.7598 36.2 22.2598 35.8C24.4598 35.5 26.3598 35.7 27.3598 35.8C28.2598 35.9 28.8598 36.1 29.6598 36.3C30.2598 36.5 31.1598 36.7 32.2598 37C33.8598 37.4 35.8598 37.6 37.2598 37.7C37.5598 37.7 37.8598 37.8 38.1598 37.8C38.2598 37.8 38.2598 37.8 38.3598 37.8H53.6598C55.8598 37.8 57.6598 39.6 57.6598 41.9C57.6598 44.1 55.8598 46 53.5598 46C53.4598 46 53.3598 46 53.2598 46C53.1598 46 53.0598 46 52.9598 46H37.1598C36.2598 46 35.4598 46.7 35.4598 47.7C35.4598 48.6 36.1598 49.4 37.1598 49.4H52.7598C52.8598 49.4 52.9598 49.4 53.0598 49.4C53.1598 49.4 53.2598 49.4 53.3598 49.4C57.4598 49.4 60.7598 46.1 60.7598 42C60.7598 41.9 60.7598 41.8 60.7598 41.8L80.4598 33.3C80.4598 33.3 80.5598 33.3 80.5598 33.2C80.7598 33.1 81.9598 32.5 83.2598 32.9C83.4598 33 84.6598 33.4 85.2598 34.6C85.7598 35.1 85.6598 35.9 85.6598 36.2Z" fill="#CDABDB"/>
</svg>
